<?xml version="1.0" encoding="UTF-8" standalone="no"?>
<!-- Generator: visioncortex VTracer 0.6.5 -->

<svg
   version="1.1"
   width="512"
   height="512"
   id="svg15"
   xmlns="http://www.w3.org/2000/svg"
   xmlns:svg="http://www.w3.org/2000/svg">
  <defs
     id="defs15" />
  <path
     d="M0 0 C168.96 0 337.92 0 512 0 C512 168.96 512 337.92 512 512 C343.04 512 174.08 512 0 512 C0 343.04 0 174.08 0 0 Z "
     fill="#FEFEFE"
     transform="translate(0,0)"
     id="path1" />
  <path
     d="M0 0 C1.18 -0.01 2.37 -0.01 3.59 -0.02 C6.83 -0.03 10.08 -0.03 13.32 -0.01 C16.83 -0.01 20.35 -0.02 23.86 -0.03 C30.73 -0.05 37.6 -0.04 44.47 -0.03 C50.05 -0.02 55.64 -0.02 61.22 -0.03 C61.62 -0.03 61.62 -0.03 63.64 -0.03 C65.26 -0.03 66.88 -0.03 68.5 -0.03 C83.66 -0.04 98.82 -0.03 113.98 -0.01 C126.97 0.01 139.96 0 152.95 -0.01 C168.06 -0.03 183.17 -0.04 198.28 -0.03 C199.9 -0.03 201.51 -0.03 203.12 -0.03 C203.91 -0.03 204.71 -0.03 205.53 -0.03 C211.1 -0.02 216.68 -0.03 222.25 -0.04 C229.05 -0.05 235.85 -0.05 242.65 -0.02 C246.11 -0.01 249.58 -0.01 253.04 -0.02 C256.81 -0.03 260.57 -0.02 264.33 0 C265.42 -0.01 266.5 -0.02 267.62 -0.03 C274.94 0.05 280.83 1.6 287.54 4.51 C287.54 5.17 287.54 5.83 287.54 6.51 C288.12 6.63 288.71 6.76 289.31 6.89 C297.54 9.18 303.55 15.89 308.54 22.51 C309.97 25.49 310.54 27.18 310.54 30.51 C311.2 30.51 311.86 30.51 312.54 30.51 C314.92 37.3 315.98 43.3 315.93 50.48 C315.93 50.96 315.93 50.96 315.94 53.37 C315.96 56.53 315.95 59.69 315.94 62.86 C315.95 65.14 315.96 67.42 315.96 69.69 C315.98 75.87 315.98 82.04 315.98 88.21 C315.97 93.37 315.98 98.53 315.98 103.69 C316 116.55 316 129.42 315.98 142.29 C315.97 153.45 315.99 164.6 316.01 175.76 C316.03 187.24 316.04 198.72 316.04 210.19 C316.03 216.63 316.04 223.06 316.05 229.5 C316.07 235.55 316.07 241.6 316.05 247.66 C316.04 249.87 316.05 252.09 316.06 254.3 C316.16 276.99 316.16 276.99 311.54 284.51 C310.88 284.84 310.22 285.17 309.54 285.51 C308.59 287.13 307.65 288.76 306.73 290.41 C299.12 303.83 291.06 307.67 276.54 312.51 C274.92 312.6 273.3 312.64 271.68 312.64 C270.68 312.64 269.67 312.64 268.63 312.65 C267.53 312.64 266.42 312.64 265.27 312.64 C264.1 312.64 262.92 312.65 261.71 312.65 C258.44 312.65 255.17 312.65 251.9 312.65 C248.38 312.65 244.86 312.66 241.33 312.66 C234.43 312.67 227.52 312.67 220.61 312.67 C215 312.68 209.38 312.68 203.76 312.68 C187.84 312.69 171.91 312.69 155.99 312.69 C155.56 312.69 155.56 312.69 153.39 312.69 C152.53 312.69 151.67 312.69 150.78 312.69 C136.86 312.69 122.93 312.7 109.01 312.72 C94.71 312.73 80.41 312.74 66.11 312.74 C58.08 312.74 50.05 312.74 42.03 312.75 C35.19 312.76 28.35 312.76 21.51 312.75 C18.03 312.75 14.54 312.75 11.05 312.76 C7.27 312.77 3.48 312.76 -0.31 312.76 C-0.85 312.76 -0.85 312.76 -3.62 312.77 C-10.13 312.74 -16.13 312.05 -22.46 310.51 C-22.46 309.85 -22.46 309.19 -22.46 308.51 C-22.82 308.46 -22.82 308.46 -24.65 308.24 C-32.5 306.19 -40.66 297.7 -44.77 290.88 C-46.46 287.51 -46.46 287.51 -46.46 284.51 C-47.12 284.51 -47.78 284.51 -48.46 284.51 C-54.03 274.01 -53.01 262.53 -52.95 251.01 C-52.95 248.73 -52.95 246.45 -52.96 244.17 C-52.97 237.99 -52.95 231.81 -52.93 225.64 C-52.91 219.17 -52.92 212.69 -52.92 206.22 C-52.92 195.36 -52.9 184.49 -52.87 173.62 C-52.84 162.46 -52.83 151.3 -52.83 140.13 C-52.83 139.44 -52.83 138.75 -52.83 138.05 C-52.83 137.36 -52.83 136.67 -52.83 135.96 C-52.83 122.58 -52.82 109.2 -52.8 95.82 C-52.8 91.97 -52.8 88.12 -52.79 84.27 C-52.79 78.22 -52.78 72.17 -52.76 66.12 C-52.75 63.9 -52.75 61.68 -52.75 59.46 C-52.75 56.43 -52.74 53.39 -52.73 50.36 C-52.73 49.49 -52.73 48.62 -52.74 47.72 C-52.63 34.17 -47.63 24.35 -38.45 14.42 C-27.31 3.74 -15.29 -0.13 0 0 Z "
     fill="#000000"
     transform="translate(124.46084594726563,99.4920654296875)"
     id="path2" />
  <path
     d="M0 0 C1.01 -0 2.02 -0.01 3.07 -0.01 C4.17 -0.01 5.28 -0.01 6.43 -0.01 C7.61 -0.01 8.79 -0.01 10 -0.01 C13.28 -0.02 16.56 -0.02 19.83 -0.02 C23.37 -0.02 26.9 -0.02 30.43 -0.03 C37.35 -0.04 44.28 -0.04 51.2 -0.04 C56.82 -0.04 62.45 -0.04 68.07 -0.04 C84.02 -0.05 99.96 -0.06 115.9 -0.06 C116.33 -0.06 116.33 -0.06 118.51 -0.06 C118.94 -0.06 118.94 -0.06 121.12 -0.06 C135.07 -0.06 149.03 -0.07 162.98 -0.08 C177.3 -0.09 191.63 -0.1 205.95 -0.1 C213.99 -0.1 222.04 -0.1 230.08 -0.11 C236.93 -0.12 243.77 -0.12 250.62 -0.12 C254.12 -0.11 257.61 -0.11 261.1 -0.12 C264.89 -0.13 268.68 -0.13 272.46 -0.12 C273.57 -0.12 274.68 -0.13 275.82 -0.13 C276.83 -0.13 277.85 -0.12 278.89 -0.12 C279.76 -0.12 280.64 -0.12 281.54 -0.12 C284.32 0.16 286.47 0.98 289.01 2.13 C289.01 2.46 289.01 2.79 289.01 3.13 C288.39 3.13 287.77 3.13 287.14 3.13 C250.55 3.11 213.97 3.09 177.39 3.08 C172.99 3.08 168.6 3.08 164.21 3.07 C163.77 3.07 163.77 3.07 161.56 3.07 C147.4 3.07 133.24 3.06 119.08 3.05 C104.55 3.04 90.02 3.04 75.49 3.03 C66.53 3.03 57.56 3.03 48.6 3.02 C42.45 3.02 36.3 3.01 30.16 3.02 C26.61 3.02 23.06 3.01 19.51 3.01 C15.67 3 11.82 3.01 7.97 3.01 C6.85 3.01 5.73 3 4.58 3 C-8.85 3.03 -8.85 3.03 -13.18 5.25 C-15.52 6.38 -16.57 5.84 -18.99 5.13 C-17.41 4.48 -15.83 3.83 -14.24 3.19 C-13.36 2.83 -12.48 2.47 -11.57 2.1 C-7.6 0.6 -4.25 0 0 0 Z "
     fill="#2C2C2C"
     transform="translate(116.99164485931396,99.87136554718018)"
     id="path3" />
  <path
     d="M0 0 C0.4 0.01 0.4 0.01 2.44 0.06 C-4.13 5.84 -12.05 5.35 -20.31 5.32 C-21.49 5.32 -22.67 5.32 -23.88 5.33 C-27.14 5.33 -30.4 5.33 -33.66 5.32 C-37.18 5.32 -40.7 5.33 -44.22 5.33 C-51.12 5.34 -58.01 5.34 -64.9 5.33 C-70.51 5.33 -76.11 5.33 -81.72 5.33 C-82.12 5.33 -82.12 5.33 -84.14 5.33 C-85.76 5.33 -87.38 5.33 -89 5.33 C-104.21 5.34 -119.41 5.33 -134.61 5.32 C-147.65 5.31 -160.68 5.31 -173.72 5.32 C-188.86 5.33 -204.01 5.34 -219.16 5.33 C-220.77 5.33 -222.39 5.33 -224.01 5.33 C-224.8 5.33 -225.6 5.33 -226.42 5.33 C-232.01 5.33 -237.6 5.33 -243.2 5.34 C-250.02 5.34 -256.84 5.34 -263.67 5.33 C-267.15 5.32 -270.62 5.32 -274.1 5.33 C-277.88 5.33 -281.66 5.33 -285.44 5.32 C-285.98 5.32 -285.98 5.32 -288.74 5.33 C-295.24 5.3 -301.24 4.6 -307.56 3.06 C-307.56 2.4 -307.56 1.74 -307.56 1.06 C-305.46 1.2 -303.35 1.35 -301.25 1.5 C-300.08 1.58 -298.91 1.66 -297.7 1.75 C-294.56 2.06 -294.56 2.06 -291.56 3.06 C-290 3.15 -288.42 3.19 -286.85 3.19 C-285.88 3.19 -284.91 3.19 -283.9 3.2 C-282.83 3.19 -281.76 3.19 -280.65 3.19 C-279.52 3.19 -278.38 3.19 -277.21 3.19 C-273.38 3.2 -269.55 3.2 -265.72 3.19 C-262.98 3.19 -260.24 3.19 -257.51 3.2 C-250.83 3.2 -244.15 3.2 -237.48 3.2 C-232.06 3.2 -226.63 3.2 -221.21 3.2 C-220.44 3.2 -219.67 3.2 -218.87 3.2 C-217.31 3.2 -215.74 3.2 -214.18 3.2 C-199.49 3.2 -184.79 3.2 -170.1 3.19 C-157.48 3.19 -144.87 3.19 -132.25 3.19 C-117.61 3.2 -102.97 3.2 -88.33 3.2 C-86.77 3.2 -85.21 3.2 -83.65 3.2 C-83.26 3.2 -83.26 3.2 -81.32 3.2 C-75.9 3.19 -70.48 3.2 -65.06 3.2 C-58.46 3.2 -51.86 3.2 -45.26 3.2 C-41.89 3.19 -38.52 3.19 -35.15 3.2 C-31.51 3.2 -27.86 3.19 -24.22 3.19 C-23.68 3.19 -23.68 3.19 -20.95 3.2 C-19.99 3.19 -19.02 3.19 -18.02 3.19 C-17.18 3.19 -16.33 3.19 -15.47 3.19 C-13.56 3.06 -13.56 3.06 -12.56 2.06 C-10.24 1.74 -7.92 1.55 -5.59 1.34 C-2.91 0.97 -2.9 0.07 0 0 Z "
     fill="#484848"
     transform="translate(409.5625,406.9375)"
     id="path4" />
  <path
     d="M0 0 C2.02 3.03 2.25 3.6 2.26 6.99 C2.27 7.81 2.28 8.62 2.29 9.46 C2.28 10.36 2.28 11.25 2.28 12.17 C2.28 12.65 2.28 12.65 2.3 15.06 C2.32 18.26 2.32 21.46 2.32 24.66 C2.33 26.95 2.34 29.24 2.35 31.53 C2.38 37.76 2.39 44 2.4 50.23 C2.41 54.13 2.41 58.03 2.42 61.92 C2.45 72.73 2.47 83.53 2.48 94.34 C2.48 95.03 2.48 95.72 2.48 96.43 C2.48 97.13 2.48 97.82 2.48 98.54 C2.48 99.94 2.48 101.35 2.48 102.75 C2.48 103.45 2.48 104.14 2.48 104.86 C2.49 116.13 2.52 127.39 2.57 138.65 C2.62 150.23 2.64 161.81 2.65 173.39 C2.65 179.89 2.66 186.38 2.7 192.88 C2.73 199 2.73 205.12 2.72 211.24 C2.71 213.48 2.72 215.71 2.74 217.95 C2.86 232.42 2.31 246.64 -7.19 258.44 C-10 261 -10 261 -13 262 C-11.62 257.98 -9.68 255.27 -7 252 C-6.29 250.69 -5.61 249.36 -5 248 C-4.34 248 -3.68 248 -3 248 C-2.88 247.11 -2.75 246.23 -2.62 245.31 C-2 242 -2 242 -0.98 239.89 C0.43 235.72 0.27 231.78 0.24 227.4 C0.24 226.92 0.24 226.92 0.25 224.46 C0.25 221.2 0.24 217.94 0.23 214.68 C0.23 212.34 0.23 210.01 0.23 207.67 C0.23 201.32 0.22 194.98 0.2 188.64 C0.19 182.68 0.19 176.72 0.19 170.76 C0.18 158.96 0.17 147.16 0.15 135.37 C0.13 123.9 0.12 112.44 0.11 100.98 C0.11 100.63 0.11 100.63 0.11 98.84 C0.11 95.3 0.1 91.75 0.1 88.21 C0.08 58.8 0.04 29.4 0 0 Z "
     fill="#B7B7B7"
     transform="translate(439,136)"
     id="path5" />
  <path
     d="M0 0 C1.01 3.15 0.8 4.85 0 8 C-0.09 9.37 -0.13 10.74 -0.13 12.11 C-0.14 12.93 -0.14 13.74 -0.14 14.58 C-0.14 15.47 -0.14 16.36 -0.14 17.28 C-0.14 18.23 -0.15 19.18 -0.15 20.16 C-0.16 23.35 -0.16 26.54 -0.16 29.73 C-0.17 32.02 -0.17 34.3 -0.18 36.59 C-0.19 42.8 -0.2 49.01 -0.2 55.22 C-0.2 59.1 -0.21 62.99 -0.21 66.87 C-0.22 77.61 -0.23 88.36 -0.24 99.1 C-0.24 99.79 -0.24 100.48 -0.24 101.19 C-0.24 101.53 -0.24 101.53 -0.24 103.28 C-0.24 104.67 -0.24 106.07 -0.24 107.47 C-0.24 108.16 -0.24 108.85 -0.24 109.56 C-0.24 120.79 -0.26 132.01 -0.29 143.24 C-0.31 154.76 -0.32 166.29 -0.32 177.82 C-0.32 184.29 -0.33 190.76 -0.35 197.23 C-0.36 203.32 -0.37 209.4 -0.36 215.49 C-0.36 217.72 -0.36 219.96 -0.37 222.19 C-0.38 225.24 -0.38 228.29 -0.37 231.34 C-0.38 232.22 -0.38 233.11 -0.39 234.02 C-0.36 238.05 -0.13 241.17 1.59 244.85 C3.09 248.2 3.07 248.73 2 252 C-1.25 245.08 -2.58 239.36 -2.49 231.74 C-2.5 231.25 -2.5 231.25 -2.51 228.77 C-2.52 225.5 -2.5 222.24 -2.49 218.97 C-2.49 216.62 -2.49 214.27 -2.5 211.92 C-2.51 205.55 -2.49 199.19 -2.47 192.82 C-2.46 186.84 -2.46 180.85 -2.46 174.86 C-2.46 163.01 -2.44 151.15 -2.41 139.3 C-2.38 127.8 -2.37 116.29 -2.37 104.79 C-2.37 104.08 -2.37 103.37 -2.37 102.64 C-2.37 101.93 -2.37 101.22 -2.37 100.49 C-2.37 88.05 -2.36 75.61 -2.35 63.17 C-2.34 57.87 -2.33 52.57 -2.33 47.27 C-2.33 41.04 -2.32 34.82 -2.3 28.59 C-2.29 26.3 -2.29 24.01 -2.29 21.72 C-2.29 18.6 -2.28 15.48 -2.27 12.37 C-2.27 11.45 -2.27 10.54 -2.28 9.6 C-2.27 8.76 -2.26 7.93 -2.26 7.07 C-2.26 6.35 -2.25 5.63 -2.25 4.89 C-2 3 -2 3 0 0 Z "
     fill="#B6B6B6"
     transform="translate(73,132)"
     id="path6" />
  <path
     d="M0 0 C1.83 4.19 -0.02 7.82 -1.56 11.81 C-1.84 12.53 -2.11 13.24 -2.39 13.98 C-4.49 19.25 -6.75 23.13 -11 27 C-11.99 27.33 -12.98 27.66 -14 28 C-12.62 23.98 -10.68 21.27 -8 18 C-7.29 16.69 -6.61 15.36 -6 14 C-5.34 14 -4.68 14 -4 14 C-3.9 13.18 -3.79 12.35 -3.69 11.5 C-2.88 7.41 -1.54 3.87 0 0 Z "
     fill="#B6B6B6"
     transform="translate(440,370)"
     id="path7" />
  <path
     d="M0 0 C0.66 0 1.32 0 2 0 C2.18 0.36 2.18 0.36 3.1 2.16 C6.22 8.11 9.42 13.09 14 18 C10.27 16.46 8.02 14.21 5.31 11.25 C4.52 10.41 3.74 9.57 2.93 8.7 C0.79 5.71 0.31 3.63 0 0 Z "
     fill="#A1A1A1"
     transform="translate(76,384)"
     id="path8" />
  <path
     d="M0 0 C7.29 1.11 12.19 5.57 17 11 C17 11.99 17 12.98 17 14 C16.61 13.55 16.22 13.11 15.82 12.64 C11.14 7.59 6.28 4.74 0 2 C0 1.34 0 0.68 0 0 Z "
     fill="#A1A1A1"
     transform="translate(412,104)"
     id="path9" />
  <path
     d="M0 0 C1 2 1 2 0.4 4.06 C-2.98 11.91 -2.98 11.91 -8 14 C-6.62 9.98 -4.68 7.27 -2 4 C-1.29 2.69 -0.61 1.36 0 0 Z "
     fill="#757575"
     transform="translate(434,384)"
     id="path10" />
  <path
     d="M0 0 C0.4 0.01 0.4 0.01 2.44 0.06 C-0.89 3.08 -3.38 3.51 -7.81 3.75 C-8.89 3.82 -9.97 3.88 -11.08 3.95 C-11.49 3.97 -11.49 3.97 -13.56 4.06 C-13.23 3.4 -12.9 2.74 -12.56 2.06 C-10.53 1.68 -10.53 1.68 -8.06 1.5 C-4.93 1.26 -2.92 0.07 0 0 Z "
     fill="#232323"
     transform="translate(409.5625,406.9375)"
     id="path11" />
  <path
     d="M0 0 C1.32 0.33 2.64 0.66 4 1 C4 2.32 4 3.64 4 5 C4.66 5 5.32 5 6 5 C6 7.31 6 9.62 6 12 C4 8.25 4 8.25 4 6 C3.34 6 2.68 6 2 6 C1.34 4.02 0.68 2.04 0 0 Z "
     fill="#A9A9A9"
     transform="translate(433,124)"
     id="path12" />
  <path
     d="M0 0 C1.2 3.53 0.8 6.13 0.06 9.75 C-0.13 10.73 -0.33 11.72 -0.53 12.73 C-0.68 13.48 -0.84 14.23 -1 15 C-1.33 15 -1.66 15 -2 15 C-2.05 13.06 -2.09 11.13 -2.12 9.19 C-2.15 8.11 -2.17 7.03 -2.2 5.92 C-2 3 -2 3 0 0 Z "
     fill="#C7C7C7"
     transform="translate(73,132)"
     id="path13" />
  <path
     d="M0 0 C1 2 1 2 0.19 5.06 C-1 8 -1 8 -3 9 C-2.44 5.66 -1.65 2.97 0 0 Z "
     fill="#4F4F4F"
     transform="translate(77,126)"
     id="path14" />
  <path
     d="M0 0 C1.65 0 3.3 0 5 0 C1.25 3 1.25 3 -1 3 C-0.67 2.01 -0.34 1.02 0 0 Z "
     fill="#444444"
     transform="translate(407,407)"
     id="path15" />
</svg>
