<?xml version="1.0" encoding="UTF-8" standalone="no"?>
<!-- Generator: visioncortex VTracer 1.0.0-alpha.4 -->

<svg
   version="1.1"
   width="256"
   height="256"
   id="svg2"
   xmlns="http://www.w3.org/2000/svg"
   xmlns:svg="http://www.w3.org/2000/svg">
  <defs
     id="defs2" />
  <path
     d="M0,256C0,170.67,0,85.33,0,0C85.33,0,170.67,0,256,0c0,85.33,0,170.67,0,256c-85.33,0-170.67,0-256,0Z"
     fill="#FEFEFE"
     id="path1" />
  <path
     d="M219,98c-8.74,8.77-18.05,16.55-27.44,24.57c-7.21,6.16-14.18,12.47-21.56,18.43c3.01,14.32,6.32,28.57,9.61,42.83c.71,3.09,1.41,6.18,2.21,9.25c1.09,4.2,2.18,7.53,2.18,11.92c-6.23-2.3-11.67-6.04-17.28-9.5c-7.99-4.94-15.94-9.93-23.89-14.94c-3.56-2.24-9.67-7.2-13.75-7.41c-5.62-.29-11.44,4.48-15.96,7.37c-8.52,5.42-17.11,10.73-25.73,16c-4.97,3.03-9.85,6.63-15.39,8.48c.67-7.72,2.73-15.2,4.64-22.69c2.12-8.31,4.22-16.63,6.25-24.97c.88-3.59,3.67-11.67,2.77-15c-1.22-4.53-8.48-8.93-12.05-11.93c-3.92-3.3-7.64-6.81-11.54-10.13C53.49,113,44.96,105.99,37,98c21.99-2.09,43.92-4.19,66-5c3.04-9.43,6.79-18.53,10.52-27.7C117.91,54.49,122.35,43.7,127,33c.66,0,1.32,0,2,0c5.95,14.25,11.91,28.49,17.83,42.74C148.61,80.05,153,88.72,153,93c22.02,1.37,44.02,3.11,66,5Z"
     fill="#010101"
     id="path2" />
</svg>
